<svg xmlns="http://www.w3.org/2000/svg" width="700.247" height="240" viewBox="0 0 700.247 240"><path d="M.247 34.074l36.79-8.889V.494H.247v33.58zm0 124.938h36.79V37.531L.247 45.432v113.58zM663.21 0v33.58L700 24.938V.247L663.21 0zm-460 0H67.407v158.518h36.297V96.79h99.506c23.703 0 35.555-10.123 35.555-30.617V30.864C239.012 10.37 226.913 0 203.21 0zm0 57.037c0 5.432-1.482 9.136-4.692 10.864a28.388 28.388 0 0 1-12.098 1.976h-82.716V27.16h82.963c4.197-.246 8.148.247 12.098 1.976 3.21 1.975 4.692 5.432 4.692 10.864v17.037h-.247zm460 101.482H700V37.037l-36.79 7.901v113.58zM425.185 69.383c-5.679-5.185-16.05-7.655-31.358-7.655h-82.716c-3.95.247-8.148-.247-11.852-1.975-2.963-1.975-4.691-5.432-4.691-10.864v-8.395c0-5.432 1.481-9.136 4.691-10.864a28.388 28.388 0 0 1 12.099-1.976h70.864c4.198-.247 8.148.247 12.099 1.976 2.963 1.975 4.691 5.432 4.691 10.864v5.432l32.593-7.654v-3.457c0-13.334-2.963-22.47-8.89-27.408S406.668 0 392.1 0h-89.877c-15.062 0-25.432 2.47-31.111 7.654-5.68 5.186-8.395 15.062-8.395 29.877v17.53c0 14.816 2.716 24.692 8.395 29.877 5.679 5.185 15.802 7.655 31.111 7.655h83.21c3.704-.247 7.407.493 11.111 1.975 2.963 1.975 4.445 5.432 4.445 10.864v10.864c0 5.432-1.482 9.136-4.692 10.864-3.21 1.482-6.666 1.976-10.123 1.976h-77.531c-3.95.247-8.148-.247-11.852-1.976-2.963-1.975-4.691-5.432-4.691-10.864v-5.926l-32.593 6.667v4.198c0 14.814 2.716 24.69 8.395 29.876 5.68 4.938 16.05 7.654 31.111 7.654h95.062c15.062 0 25.432-2.469 31.111-7.654s8.395-15.062 8.395-29.876V99.506c0-15.062-2.716-24.938-8.395-30.123zm199.012 0c-5.679-5.185-16.049-7.655-31.11-7.655h-82.964c-3.95.247-8.148-.493-11.852-1.975-2.962-1.975-4.69-5.432-4.69-10.864v-8.395c0-5.432 1.48-9.136 4.69-10.864a28.388 28.388 0 0 1 12.1-1.976h70.863c4.198-.247 8.149.247 12.1 1.976 3.209 1.975 4.69 5.432 4.69 10.864v5.432l32.84-7.654v-3.457c0-13.334-2.963-22.47-8.642-27.408C616.543 2.47 606.172 0 591.605 0H501.48c-15.061 0-25.432 2.47-31.11 7.654s-8.396 15.062-8.396 29.877v17.53c0 14.816 2.716 24.692 8.395 29.877 5.432 5.185 15.803 7.655 31.111 7.655h83.21c3.704-.247 7.408.493 11.111 1.975 3.21 1.975 4.692 5.432 4.692 10.864v10.617c0 5.432-1.482 9.136-4.692 10.865-3.21 1.481-6.666 1.975-10.123 1.975h-78.025c-3.95.247-8.148-.494-11.852-1.975-2.963-1.976-4.691-5.433-4.691-10.865v-5.926l-32.593 6.667v4.198c0 14.814 2.716 24.691 8.395 29.876 5.68 5.185 16.05 7.654 31.112 7.654h94.814c15.062 0 25.68-2.469 31.112-7.654 5.678-5.185 8.395-15.062 8.395-29.876V99.259c.246-14.815-2.47-24.691-8.149-29.876zm-130.37-23.704z" fill="#3c95fe"/><path d="M3.21 228.889h6.913v-2.222h-7.16v-4.939h8.395v-2.469H0v17.531h11.605v-2.47H3.21v-5.431zm7.16-14.568H6.914l-2.223 3.704h2.223l3.456-3.704zm12.593 19.506c-.74.494-1.728.74-2.716.74-1.235 0-2.222-.493-2.963-1.48-.74-1.482-.988-2.964-.988-4.445v-1.482c-.247-1.481.247-2.963.988-4.197.494-.988 1.728-1.481 2.963-1.481.988-.248 1.728.246 2.469.74.494.74.988 1.729.988 2.716h2.963c0-1.728-.741-3.21-1.976-4.444-1.234-.988-2.963-1.482-4.691-1.482-1.235 0-2.47.247-3.704.988-.987.74-1.975 1.728-2.469 2.963-.74 1.481-.988 2.963-.988 4.444v1.729c0 1.481.247 2.963.988 4.197.494.988 1.482 1.976 2.47 2.716 1.234.741 2.468.988 3.703.988 1.728.247 3.457-.247 4.938-1.482 1.235-1.234 1.975-2.716 1.975-4.444h-2.716c-.247.988-.493 1.975-1.234 2.716zm19.012-10.864c-.494-1.235-1.481-2.222-2.469-2.963-2.469-1.481-5.185-1.481-7.654 0-.988.74-1.976 1.728-2.47 2.963-.74 1.234-.987 2.963-.987 4.444v.988c0 1.481.247 2.963.988 4.444.493 1.235 1.481 2.223 2.469 2.963 1.234.741 2.469.988 3.95.988 1.482 0 2.716-.247 3.951-.988.988-.74 1.975-1.728 2.47-2.963.74-1.234.987-2.963.987-4.444l-.247-.988c0-1.481-.247-2.963-.988-4.444zm-2.963 9.876c-.74.988-1.975 1.482-3.21 1.482-1.234.247-2.469-.494-3.21-1.482-.74-1.234-.987-2.963-.987-4.444v-.988c0-1.481.494-3.21 1.234-4.444l.741-.74c1.729-1.235 4.198-.989 5.432.74.741 1.234.988 2.963.988 4.444v.988c.247 1.481-.247 2.963-.988 4.444zm9.383-13.58h-2.963v17.531h11.111v-2.47h-7.901l-.247-15.06zm13.086 9.63h6.914v-2.222h-7.16v-4.939h8.395v-2.469H58.272v17.531h11.605v-2.47H61.48v-5.431zm25.68-.494c-.988-.74-1.976-1.235-3.21-1.482-.988-.246-1.976-.74-2.963-1.234-.741-.494-.988-.988-.988-1.728-.247-.741.247-1.235.74-1.729 1.482-.988 3.21-.988 4.692 0 .494.494.74 1.482.74 2.222h2.964c0-.987-.247-1.975-.741-2.716-.494-.987-1.235-1.481-2.222-1.975-.988-.494-1.976-.74-3.21-.74-1.482 0-3.21.493-4.445 1.48a4.32 4.32 0 0 0-1.728 3.458c0 1.728.988 3.21 2.47 3.95 1.234.74 2.221 1.235 3.456 1.482.988.247 1.975.74 2.963 1.234.494.247.74.988.74 1.729.248.493-.246 1.234-.987 1.481-.74.494-1.481.74-2.47.74-1.234.248-2.221-.246-2.962-.74-.74-.494-.988-1.234-.988-2.222H76.05c0 .987.494 2.222.988 2.963.74.987 1.481 1.481 2.469 1.975.988.494 2.222.74 3.457.74 1.728.248 3.457-.246 4.691-1.234 1.235-.74 1.729-1.975 1.729-3.456.247-.741 0-1.729-.494-2.47a5.769 5.769 0 0 0-1.729-1.728zm14.32 2.963c0 2.47-.987 3.704-3.456 3.704-.988 0-1.976-.247-2.716-.988s-.988-1.728-.988-2.716v-11.852h-2.963v11.852c-.247 1.728.494 3.21 1.728 4.444a8.903 8.903 0 0 0 4.939 1.482c1.728 0 3.456-.494 4.691-1.728 1.235-1.235 1.728-2.717 1.728-4.445v-11.852l-2.963.494v11.605zm12.346-12.346h-6.667v17.531h2.963v-6.42l3.704-.247c1.729 0 3.21-.493 4.692-1.48 1.234-.989 1.728-2.47 1.728-3.952 0-1.481-.494-2.962-1.728-3.95-1.235-.988-2.963-1.482-4.692-1.482zm2.47 7.901c-.741.494-1.482.741-2.47.741h-3.704v-6.172h3.457c.988 0 1.729.246 2.47.987.74.494.987 1.482.987 2.222.247.741-.247 1.729-.74 2.222zm6.172 9.877h11.358v-2.47h-8.395v-5.431h7.16v-2.222h-7.16v-4.939h8.395v-2.469h-11.358v17.531zm9.877-22.469h-3.457l-2.222 3.704h2.222l3.457-3.704zm15.308 13.086c.494-.987.741-1.975.741-2.963 0-1.481-.494-2.962-1.728-3.95-1.235-.74-2.963-1.235-4.692-1.235h-6.173v17.531h2.963v-6.914h3.457l3.704 6.914h3.21v-.247l-3.95-7.407c.987-.247 1.728-.988 2.468-1.729zm-5.679 0h-3.21l.247-5.926h3.21c.988-.247 1.729.247 2.47.741.493.74.74 1.482.74 2.222 0 .988-.494 1.729-.988 2.223-.74.493-1.481.74-2.469.74zm8.89 9.383h2.962v-17.53h-2.963v17.53zm6.172 0h11.358v-2.47H160v-5.431h7.16v-2.222H160v-4.939h8.395v-2.469h-11.358v17.531zm23.457-5.432c0 2.47-.988 3.704-3.457 3.704-.988 0-1.975-.247-2.716-.988s-.988-1.728-.988-2.716v-11.852h-2.963v11.852c-.247 1.728.494 3.21 1.729 4.444 1.234.988 2.963 1.482 4.691 1.482s3.457-.494 4.691-1.728 1.729-2.717 1.729-4.445v-11.852l-2.716.494v11.605zm17.284-3.95c.494-.988.74-1.976.74-2.964 0-1.481-.493-2.962-1.728-3.95-1.234-.74-2.963-1.235-4.691-1.235h-6.173v17.531h2.963v-6.914h3.457l3.703 6.914h3.21v-.247l-3.95-7.407c.987-.247 1.728-.988 2.469-1.729zm-5.68 0h-3.21l.248-5.927h3.21c.987-.247 1.728.247 2.469.741.494.74.74 1.482.74 2.222 0 .988-.493 1.729-.987 2.223-.74.493-1.482.74-2.47.74zm11.606 1.48h7.16l-.247-2.221h-7.16v-4.939h8.395v-2.469h-11.358v17.531h11.605v-2.47h-8.395v-5.431zm22.716-9.876h-6.667v17.531h2.963v-6.42l3.704-.247c1.728 0 3.21-.493 4.691-1.48 1.235-.989 1.728-2.47 1.728-3.952 0-1.481-.493-2.962-1.728-3.95-1.235-.988-2.963-1.482-4.691-1.482zm2.469 7.901c-.741.494-1.482.741-2.47.741h-3.703v-6.172h3.704c.987 0 1.728.246 2.469.987.74.494.987 1.482.987 2.222s-.493 1.729-.987 2.222zm17.778.494c.493-.987.74-1.975.74-2.963 0-1.481-.493-2.962-1.728-3.95s-2.963-1.235-4.691-1.235h-6.173v17.531h2.963v-6.914h3.457l3.703 6.914h3.21v-.247l-3.95-7.407c.987-.247 1.728-.988 2.469-1.729zm-5.68 0h-3.21l.248-5.926h3.21c.987-.247 1.728.247 2.469.741.493.74.74 1.482.74 2.222 0 .988-.493 1.729-.987 2.223-.741.493-1.482.74-2.47.74zm8.89 9.383h2.962v-17.53h-2.962v17.53zm12.345-3.95l-4.691-13.828h-3.21l6.42 17.531h2.963l6.42-17.53h-3.457l-4.445 13.826zm12.346-3.951h7.16l-.247-2.222h-7.16v-4.939h8.395v-2.469h-11.358v17.531h11.605v-2.47h-8.395v-5.431zm6.913-14.568h-3.456l-2.47 3.704h2.47l3.456-3.704zm6.42 14.568h7.16v-2.222h-7.16v-4.939h8.148v-2.469h-11.358v17.531h11.605v-2.47h-8.395v-5.431zm25.185-8.642c-1.234-.74-2.716-.988-4.197-.988h-5.185v17.778h5.185c1.481 0 2.963-.247 4.197-.988.988-.74 1.976-1.728 2.716-2.963.741-1.481.988-2.963.988-4.444v-.988c0-1.481-.247-3.21-.988-4.444-.494-1.235-1.481-2.222-2.716-2.963zm-.74 12.592c-.988.988-2.223 1.482-3.704 1.482h-1.975v-12.593l1.975-.246c1.481 0 2.716.493 3.704 1.48.987 1.235 1.234 2.964 1.234 4.445v.988c.247 1.728-.247 3.21-1.234 4.444zm6.913-12.84c-.247 1.235-.494 2.47-1.234 3.458l1.481.987c.74-.74 1.235-1.234 1.728-1.975.247-.74.494-1.728.494-2.47v-1.728h-2.469V220zm4.938 16.791h2.963v-17.53h-2.963v17.53zm17.284-4.938l-7.9-12.593h-2.964v17.531h2.963v-12.593l7.901 12.593h2.963v-17.53h-2.963v12.592zm5.926 4.938h2.963v-7.407h7.16v-2.47h-7.16v-5.185h8.149v-2.469h-11.112v17.531zM370.864 220c-.988-.74-2.469-.988-3.704-.988-1.481 0-2.716.247-3.95.988-.988.74-1.976 1.728-2.47 2.963-.74 1.234-.987 2.963-.987 4.444v.988c0 1.481.247 2.963.988 4.444.493 1.235 1.481 2.223 2.469 2.963 2.469 1.482 5.185 1.482 7.654 0 .988-.74 1.975-1.728 2.47-2.963.74-1.234.987-2.963.987-4.444v-.988c0-1.481-.247-2.963-.988-4.444-.494-1.235-1.481-2.222-2.469-2.963zm-.494 12.84l-.74.74c-1.729 1.235-4.198.988-5.433-.74-.987-1.235-1.234-2.964-1.234-4.445v-.988c0-1.481.494-3.21 1.234-4.444l.741-.74c1.729-1.235 4.198-.989 5.432.74.741 1.234.988 2.963.988 4.444v.988c.247 1.481-.247 2.963-.988 4.444zm18.272-5.433c.494-.987.74-1.975.74-2.963 0-1.481-.493-2.962-1.728-3.95-1.234-.74-2.963-1.235-4.691-1.235h-6.173v17.531h2.963v-6.914h3.457l3.457 6.914h3.456v-.247l-3.95-7.407c.987-.247 1.728-.988 2.469-1.729zm-5.68 0h-3.209l.247-5.926h3.21c.987-.247 1.728.247 2.469.741.494.74.74 1.482.74 2.222 0 .988-.493 1.729-.987 2.223-.74.493-1.481.74-2.47.74zm17.779 5.432l-5.185-13.58h-3.951v17.531h3.21v-5.926l-.247-7.654 5.185 13.58h2.222l5.186-13.58-.247 7.654v5.926h2.962v-17.53h-3.95l-5.185 13.58zm17.284-13.58l-6.667 17.531h2.963l1.481-4.197h6.914l1.481 4.197h3.21l-6.666-17.53h-2.716zm-1.235 10.864l2.716-7.407 2.47 7.407h-5.186zm9.383-8.395h5.432v15.062h2.963v-15.062H440l.247-2.469h-14.074v2.47zm15.802 15.062h2.963v-17.53h-2.963v17.53zm16.543-16.296c-1.234-.74-2.716-.988-3.95-.988-1.235 0-2.47.247-3.704.988-.988.74-1.975 1.728-2.469 2.963-.74 1.234-.988 2.963-.988 4.444v.988c0 1.481.247 2.963.988 4.444.74 1.235 1.481 2.222 2.716 2.963.988.741 2.47.988 3.704.988.494 0 .987-.247 1.481-.247L460 240l1.975-1.728-2.963-2.47c.988-.74 1.729-1.728 2.222-2.963.494-1.481.741-2.963.741-4.444v-.494c0-1.481-.494-2.963-.988-4.444-.493-1.235-1.48-2.223-2.469-2.963zm0 7.901c.247 1.481-.247 2.963-.987 4.444l-.74.741c-1.73 1.235-4.199.988-5.433-.74-.74-1.235-.988-2.964-.988-4.445v-.988c0-1.728.494-3.21 1.235-4.444l.74-.74c1.729-1.235 4.198-.989 5.433.74.987 1.234 1.234 2.963 1.234 4.444l-.494.988zm16.05 2.963c0 2.47-.988 3.704-3.457 3.704-.988 0-1.975-.247-2.716-.988-.74-.74-.988-1.728-.988-2.716v-11.852h-2.963v11.852c-.247 1.728.494 3.21 1.729 4.444 1.481.988 3.21 1.482 4.938 1.482s3.457-.494 4.691-1.728c1.235-1.235 1.729-2.717 1.729-4.445v-11.852l-2.963.494v11.605zm8.642-2.47h7.16l-.247-2.221h-7.16v-4.939h8.395v-2.469H480v17.531h11.605v-2.47h-8.395v-5.431zm19.012 0h7.16l-.246-2.221h-7.16v-4.939h8.394v-2.469h-11.358v17.531h11.605v-2.47h-8.395v-5.431zm9.383-7.16h5.432v15.062H520v-15.062h5.432l.247-2.469h-14.074v2.47zm29.63-1.481c-1.235-.74-2.717-.988-4.198-.988h-5.185v17.778h5.185c1.481 0 2.963-.247 4.198-.988.987-.74 1.975-1.728 2.716-2.963.74-1.481.987-2.963.987-4.444v-.988c0-1.481-.247-3.21-.987-4.444-.494-1.235-1.482-2.222-2.716-2.963zm-.741 12.592c-.988.988-2.222 1.482-3.704 1.482h-1.975v-12.593l1.975-.246c1.482 0 2.716.493 3.704 1.48.987 1.235 1.234 2.964 1.234 4.445v.988c.247 1.728-.247 3.21-1.234 4.444zm17.037-1.481c0 2.47-.988 3.704-3.457 3.704-.988 0-1.975-.247-2.716-.988-.74-.74-.988-1.728-.988-2.716v-11.852h-2.963v11.852c-.247 1.728.494 3.21 1.729 4.444 1.234.988 2.963 1.482 4.691 1.482 1.728 0 3.457-.494 4.691-1.728 1.235-1.235 1.729-2.717 1.729-4.445v-11.852l-2.716.494v11.605zm21.975.494l-7.901-12.593h-2.963v17.531h2.963v-12.593l7.901 12.593h2.963v-17.53h-2.963v12.592zm16.05-.494c0 2.47-.988 3.704-3.457 3.704-.988 0-1.976-.247-2.716-.988s-.988-1.728-.988-2.716v-11.852h-2.963v11.852c-.247 1.728.494 3.21 1.728 4.444 1.235.988 2.963 1.482 4.692 1.482 1.728 0 3.457-.494 4.691-1.728s1.728-2.717 1.728-4.445v-11.852l-2.715.494v11.605zm14.567 1.481l-5.185-13.58h-3.95v17.531h2.963v-5.926l-.247-7.654 5.185 13.58h2.222l5.185-13.58-.247 7.654v5.926h2.963v-17.53h-3.95l-4.939 13.58zm21.976-18.518h-3.457l-2.47 3.704h2.47l3.457-3.704zm-6.914 14.568h6.914v-2.222h-7.16v-4.939h8.394v-2.469h-11.358v17.531h11.605v-2.47h-8.395v-5.431zm21.975-1.482c.741-.987.988-1.975.988-2.963 0-1.481-.494-2.962-1.728-3.95-1.235-.988-2.963-1.235-4.692-1.235h-6.173v17.531h2.963v-6.914h3.457l3.457 6.914h3.21v-.247l-3.95-7.407c.987-.247 1.728-.988 2.468-1.729zm-5.432 0h-3.21v-5.926h3.457c.988-.247 1.729.247 2.47.741.493.74.74 1.482.74 2.222 0 .988-.494 1.729-.988 2.223-.74.493-1.481.74-2.469.74zm8.642-8.148v17.531h3.21l-.247-17.53h-2.963zm20.247 9.136l.247-.494c0-1.481-.494-2.963-.987-4.444-.494-1.235-1.482-2.223-2.47-2.963-1.234-.74-2.716-.988-3.95-.988-1.235 0-2.47.247-3.704.988-.987.74-1.975 1.728-2.47 2.963-.74 1.234-.987 2.963-.987 4.444v.988c0 1.481.247 2.963.988 4.444.494 1.235 1.234 2.222 2.47 2.963.987.741 2.468.988 3.703.988.494 0 .987-.247 1.481-.247l3.704 2.963 1.975-1.728-2.963-2.47c.988-.74 1.729-1.728 2.222-2.963.494-1.481.741-2.963.741-4.444zm-4.197 4.444l-.741.741c-1.729 1.235-4.198.988-5.432-.74-.988-1.235-1.235-2.964-1.235-4.445v-.988c0-1.728.494-3.21 1.235-4.444l.74-.74c1.729-1.235 4.198-.989 5.433.74.987 1.234 1.234 2.963 1.234 4.444l-.247.988c.247 1.481-.247 2.963-.987 4.444zm16.543-1.481c0 2.47-.988 3.704-3.457 3.704-.988 0-1.975-.247-2.716-.988s-.988-1.728-.988-2.716v-11.852h-2.963v11.852c-.246 1.728.494 3.21 1.729 4.444a8.902 8.902 0 0 0 4.938 1.482c1.728 0 3.457-.494 4.691-1.728s1.729-2.717 1.729-4.445v-11.852l-2.963.494v11.605zm8.889 2.963v-5.432h6.913v-2.222h-7.16v-4.939H700v-2.469h-11.358v17.531h11.605v-2.47h-8.395z" fill="#706f6f"/></svg>